<?xml version="1.0" encoding="UTF-8" standalone="no"?>
<!DOCTYPE svg PUBLIC "-//W3C//DTD SVG 1.1//EN" "http://www.w3.org/Graphics/SVG/1.1/DTD/svg11.dtd">
<svg width="100%" height="100%" viewBox="0 0 24 24" version="1.1" xmlns="http://www.w3.org/2000/svg" xmlns:xlink="http://www.w3.org/1999/xlink" xml:space="preserve" xmlns:serif="http://www.serif.com/" style="fill-rule:evenodd;clip-rule:evenodd;stroke-linejoin:round;stroke-miterlimit:2;">
    <path d="M0,0L24,0L24,24L0,24L0,0ZM0,0L24,0L24,24L0,24L0,0Z" style="fill:none;fill-rule:nonzero;"/>
    <path d="M12,2C6.48,2 2,6.48 2,12C2,17.52 6.48,22 12,22C17.52,22 22,17.52 22,12C22,6.48 17.52,2 12,2Z" style="fill:rgb(123,118,174);"/>
    <path d="M12,20C7.58,20 4,16.42 4,12C4,7.58 7.58,4 12,4C16.42,4 20,7.58 20,12C20,16.42 16.42,20 12,20Z" style="fill:white;"/>
    <g id="stop-24px" transform="matrix(0.75,0,0,-0.75,11.9513,10.4547)">
        <g transform="matrix(1,0,0,1,-12,-12)">
            <rect x="0" y="0" width="24" height="24" style="fill:none;fill-rule:nonzero;"/>
            <path d="M16,8L16,16L8,16L8,8L16,8M18,6L6,6L6,18L18,18L18,6Z" style="fill-rule:nonzero;"/>
        </g>
    </g>
    <g id="arrow_drop_up-24px" transform="matrix(0.75,0,0,-0.75,11.9513,17.3676)">
        <g transform="matrix(1,0,0,1,-12,-12)">
            <rect x="0" y="0" width="24" height="24" style="fill:none;fill-rule:nonzero;"/>
            <path d="M7,14L12,9L17,14L7,14Z" style="fill-rule:nonzero;"/>
        </g>
    </g>
    <g transform="matrix(0.503509,0,0,0.503509,4.12667,6.76738)">
        <text x="11.56px" y="12.328px" style="font-family:'MesloLGSNer-Regular', 'MesloLGS NF', monospace;font-size:14px;">1</text>
    </g>
</svg>
