<?xml version="1.0" encoding="UTF-8" standalone="no"?>
<!DOCTYPE svg PUBLIC "-//W3C//DTD SVG 1.1//EN" "http://www.w3.org/Graphics/SVG/1.1/DTD/svg11.dtd">
<svg width="100%" height="100%" viewBox="0 0 24 24" version="1.1" xmlns="http://www.w3.org/2000/svg" xmlns:xlink="http://www.w3.org/1999/xlink" xml:space="preserve" xmlns:serif="http://www.serif.com/" style="fill-rule:evenodd;clip-rule:evenodd;stroke-linejoin:round;stroke-miterlimit:2;">
    <path d="M0,0L24,0L24,24L0,24L0,0ZM0,0L24,0L24,24L0,24L0,0Z" style="fill:none;fill-rule:nonzero;"/>
    <path d="M12,2C6.48,2 2,6.48 2,12C2,17.52 6.48,22 12,22C17.52,22 22,17.52 22,12C22,6.48 17.52,2 12,2Z" style="fill:rgb(123,118,174);"/>
    <path d="M12,20C7.58,20 4,16.42 4,12C4,7.58 7.58,4 12,4C16.42,4 20,7.58 20,12C20,16.42 16.42,20 12,20Z" style="fill:white;"/>
    <g id="Loop" transform="matrix(0.75,0,0,0.75,12,12)">
        <g transform="matrix(1,0,0,1,-12,-12)">
            <rect x="0" y="0" width="24" height="24" style="fill:none;fill-rule:nonzero;"/>
            <path d="M12,5L12,2.882L7,6L12,8.855L12,7C15.31,7 18,9.69 18,13C18,16.31 15.31,19 12,19C8.69,19 6,16.31 6,13L4,13C4,17.42 7.58,21 12,21C16.42,21 20,17.42 20,13C20,8.58 16.42,5 12,5Z" style="fill-rule:nonzero;"/>
        </g>
    </g>
</svg>
